<?xml version="1.0" standalone="no"?>
<!DOCTYPE svg PUBLIC "-//W3C//DTD SVG 20010904//EN"
 "http://www.w3.org/TR/2001/REC-SVG-20010904/DTD/svg10.dtd">
<svg version="1.0" xmlns="http://www.w3.org/2000/svg"
 width="1280.000000pt" height="1266.000000pt" viewBox="0 0 1280.000000 1266.000000"
 preserveAspectRatio="xMidYMid meet">
<metadata>
Created by potrace 1.15, written by Peter Selinger 2001-2017
</metadata>
<g transform="translate(0.000000,1266.000000) scale(0.100000,-0.100000)"
fill="#000000" stroke="none">
<path d="M8225 12640 c-100 -21 -215 -60 -287 -96 -145 -73 -734 -107 -1009
-59 l-96 17 -79 -37 c-43 -21 -92 -48 -109 -62 -16 -13 -161 -111 -320 -216
-366 -243 -509 -317 -770 -397 -283 -87 -385 -254 -372 -605 10 -266 94 -467
218 -522 21 -9 39 -23 39 -30 0 -7 23 -24 50 -38 28 -14 52 -31 54 -38 2 -7
13 -52 25 -101 11 -49 41 -134 67 -190 139 -302 138 -301 139 -412 0 -98 -1
-102 -45 -195 -39 -81 -45 -103 -45 -159 0 -53 -3 -66 -18 -72 -18 -8 -21 -13
-32 -62 -3 -15 -14 -30 -24 -33 -13 -3 -21 -22 -31 -71 -19 -102 -92 -321
-191 -576 -49 -127 -96 -246 -104 -264 -8 -18 -15 -43 -15 -55 0 -12 -25 -56
-57 -97 -156 -206 -224 -470 -225 -868 l-1 -202 -26 -6 c-52 -12 -86 -25 -107
-42 -22 -17 -22 -19 -13 -235 l9 -219 30 -30 c59 -58 94 -154 120 -318 21
-139 50 -222 125 -365 87 -166 110 -236 102 -314 -6 -61 -76 -266 -138 -401
-69 -152 -91 -251 -90 -421 0 -265 99 -569 291 -894 33 -56 74 -135 91 -178
29 -70 34 -77 64 -83 38 -7 70 -48 176 -228 40 -68 87 -133 125 -171 36 -36
112 -138 186 -250 69 -105 149 -216 178 -248 42 -46 66 -89 116 -203 35 -80
80 -172 99 -204 45 -75 120 -142 189 -171 58 -23 64 -34 69 -127 2 -32 -1 -34
-50 -52 -77 -27 -198 -54 -498 -109 -148 -28 -328 -66 -400 -86 -111 -31 -139
-35 -195 -29 -44 4 -114 -1 -219 -16 l-154 -22 -29 37 c-30 36 -81 67 -129 78
-15 4 -48 25 -75 48 -47 39 -293 169 -321 169 -7 0 -39 14 -71 31 -71 38 -113
36 -234 -15 -109 -44 -158 -55 -158 -32 0 32 38 91 110 171 87 97 113 139 141
230 12 39 38 102 59 140 47 85 67 153 125 409 30 135 51 206 64 220 56 62 109
201 130 343 17 112 14 135 -23 197 -19 31 -53 100 -76 154 -69 157 -128 267
-167 307 -36 37 -100 72 -111 60 -4 -3 1 -43 10 -87 20 -94 66 -192 169 -358
70 -114 71 -116 65 -170 -8 -79 -55 -254 -136 -503 -85 -265 -135 -452 -151
-571 l-13 -90 -97 -115 c-331 -396 -603 -693 -681 -745 -139 -94 -325 -282
-374 -378 -14 -27 -24 -65 -24 -88 0 -37 2 -40 28 -40 63 0 130 75 151 169 7
34 24 59 73 108 71 73 212 183 233 183 8 0 30 8 49 17 35 16 37 16 83 -9 133
-71 277 -94 482 -78 75 6 145 13 156 15 11 3 82 12 158 20 l138 16 46 -38 c25
-21 113 -114 196 -208 224 -254 335 -357 432 -405 116 -58 188 -73 330 -73
331 3 728 167 1004 417 51 47 92 76 106 76 12 0 30 9 40 20 10 12 34 30 53 42
31 19 43 20 136 15 69 -5 117 -13 147 -26 49 -22 68 -23 239 -21 63 1 122 -2
131 -5 10 -4 24 -32 34 -68 20 -73 39 -113 69 -146 28 -31 67 -46 78 -29 15
25 8 108 -16 170 -48 128 -81 203 -90 210 -6 4 -25 0 -44 -8 -47 -19 -69 -18
-82 5 -15 30 -12 66 9 92 19 23 24 24 165 25 l146 1 20 -33 c28 -44 85 -94
153 -133 31 -18 57 -37 57 -42 0 -5 11 -11 25 -15 27 -7 55 9 55 31 0 29 -72
119 -126 159 -55 40 -73 62 -88 110 -6 17 -2 18 63 14 98 -7 159 -40 290 -158
120 -108 145 -124 215 -140 65 -14 96 -5 96 29 0 41 -32 84 -109 145 -102 81
-107 96 -66 185 33 70 120 154 226 215 46 27 117 69 157 94 l74 45 121 2 c281
6 473 76 881 320 98 59 194 114 212 123 19 9 34 20 34 25 0 25 -36 80 -62 93
-38 20 -69 13 -153 -37 -78 -46 -151 -79 -172 -79 -9 0 -39 -22 -69 -49 -64
-58 -136 -94 -295 -146 l-116 -38 -28 21 c-24 19 -41 22 -115 22 -86 0 -87 0
-166 -48 -43 -27 -160 -103 -260 -169 -115 -76 -208 -130 -255 -148 -84 -32
-123 -56 -159 -100 -13 -16 -47 -54 -76 -82 -40 -42 -58 -53 -83 -53 -64 0
-141 59 -141 107 0 24 117 178 255 338 61 70 141 164 178 209 37 44 79 87 92
94 40 21 47 44 31 109 -7 32 -10 68 -6 79 5 11 47 56 96 100 194 176 456 489
559 669 51 88 309 439 465 630 293 362 649 709 848 828 l52 32 0 107 c0 59 7
173 16 253 9 84 14 200 12 276 l-3 131 49 -6 c28 -3 73 -17 102 -31 49 -24 53
-29 63 -73 5 -26 12 -130 16 -232 8 -225 19 -318 45 -378 16 -36 18 -48 8 -59
-23 -28 -124 -91 -278 -173 -191 -102 -287 -167 -351 -239 l-49 -55 25 -26
c33 -35 49 -88 32 -108 -6 -8 -43 -40 -80 -69 -38 -30 -73 -65 -78 -77 -6 -13
-50 -42 -112 -73 -107 -55 -177 -112 -221 -182 -32 -51 -32 -66 -1 -103 46
-55 39 -65 -122 -184 -140 -103 -319 -266 -358 -327 -14 -22 -15 -30 -5 -42 7
-8 19 -15 27 -15 7 0 62 49 121 109 103 105 362 309 477 375 28 16 77 51 109
78 33 28 104 72 159 100 55 27 167 88 251 135 191 109 307 165 429 204 94 30
112 44 101 74 -11 28 -50 27 -145 -5 -122 -41 -221 -88 -405 -193 -289 -164
-385 -205 -384 -163 1 27 111 125 191 169 46 25 132 77 190 114 59 37 163 104
233 148 133 85 140 94 111 145 -24 42 -18 69 22 106 87 80 177 82 398 11 130
-42 140 -47 143 -72 3 -19 -7 -37 -34 -67 -35 -40 -36 -43 -30 -97 3 -31 19
-94 36 -141 19 -55 30 -105 30 -141 0 -49 3 -58 29 -77 16 -11 45 -54 65 -94
20 -40 53 -95 72 -123 30 -42 35 -56 31 -88 -7 -54 -34 -75 -119 -92 -241 -51
-593 -158 -919 -281 -277 -104 -732 -292 -740 -306 -9 -15 -1 -35 17 -42 8 -3
128 41 268 99 483 197 759 297 1061 384 198 57 398 101 461 101 87 0 284 50
284 72 0 5 -22 30 -50 57 -44 43 -50 53 -50 90 0 59 14 62 206 44 185 -17 253
-9 305 34 33 28 63 81 72 130 l6 32 -227 -6 c-125 -3 -261 -3 -303 1 l-76 7
-12 51 c-8 27 -40 105 -73 171 -83 168 -104 224 -128 334 -24 111 -30 125 -78
175 -39 41 -94 63 -184 73 -114 13 -178 70 -194 174 -4 24 0 103 9 175 12 98
15 178 10 319 l-6 187 41 38 c35 33 44 50 67 132 31 112 93 291 142 410 40 99
77 161 143 245 71 90 82 118 82 199 0 85 -15 153 -87 389 -59 193 -95 350 -95
417 0 38 -7 49 -65 113 -35 40 -93 108 -127 151 -76 96 -116 129 -194 161
l-59 24 -3 58 c-7 151 110 232 388 270 114 15 349 14 720 -3 l125 -5 33 44
c18 25 99 116 179 204 81 87 173 194 204 238 88 122 108 143 168 184 147 100
227 255 191 367 -7 22 -33 67 -56 100 -49 68 -74 122 -74 156 0 15 -27 52 -75
103 -94 99 -173 217 -312 465 -60 107 -147 251 -193 320 -91 135 -144 241
-155 308 -4 23 -11 42 -16 42 -4 0 -24 14 -43 31 -25 22 -45 56 -71 123 -60
155 -239 448 -370 606 -142 170 -364 365 -559 490 -241 154 -349 191 -548 188
-104 -2 -266 5 -783 32 -400 22 -653 69 -830 156 -150 74 -303 91 -480 54z
m320 -95 c33 -8 125 -48 205 -89 146 -75 285 -125 395 -145 33 -6 155 -20 270
-32 265 -27 506 -23 690 12 149 28 196 26 310 -12 106 -35 220 -95 405 -211
74 -47 158 -97 186 -111 43 -22 57 -37 97 -105 52 -90 135 -185 195 -222 34
-21 51 -47 113 -165 167 -322 324 -594 712 -1235 149 -245 326 -543 394 -662
l124 -216 -14 -34 c-8 -18 -38 -55 -66 -83 -38 -37 -53 -60 -57 -87 -5 -26
-15 -43 -38 -59 -17 -12 -125 -117 -241 -234 l-210 -213 -230 -5 c-126 -4
-293 -13 -370 -22 -77 -8 -213 -18 -301 -22 l-162 -6 -7 31 c-3 17 1 96 9 174
9 79 17 165 18 192 3 47 4 50 43 63 110 40 310 52 568 36 96 -5 107 -8 107
-25 0 -28 -16 -53 -64 -102 -41 -41 -47 -43 -117 -50 -142 -13 -299 -58 -299
-86 0 -5 15 -19 33 -30 63 -39 223 -23 334 33 29 15 68 27 87 27 51 0 137 35
183 75 83 71 104 168 58 262 -15 28 -33 57 -41 64 -26 21 -332 71 -514 84
-104 7 -267 -7 -367 -32 l-63 -15 0 -77 c0 -89 -41 -263 -115 -491 -92 -281
-256 -667 -290 -680 -146 -55 -230 -63 -304 -29 -28 12 -90 64 -160 133 -64
62 -126 120 -138 128 -35 23 -83 88 -83 112 0 18 -17 30 -82 61 -45 22 -165
96 -267 163 -242 162 -313 197 -571 285 -337 115 -718 198 -1048 228 -175 15
-642 7 -812 -15 -483 -63 -988 -203 -1413 -393 -31 -14 -60 -23 -64 -19 -3 3
1 52 10 109 18 107 99 362 185 577 106 267 129 364 141 578 10 166 21 218 51
227 10 3 37 30 59 60 48 64 151 154 240 210 34 22 90 64 124 92 34 29 88 71
120 94 80 56 100 89 93 157 -7 74 -16 82 -96 82 l-67 0 -6 65 c-4 53 -16 88
-58 176 -44 91 -56 109 -73 107 -26 -4 -46 -43 -46 -90 0 -40 -18 -90 -31 -86
-16 6 -111 132 -134 179 -22 42 -25 62 -25 148 0 122 -14 191 -45 225 -21 23
-27 24 -55 15 -47 -17 -65 -52 -64 -129 1 -75 24 -150 63 -200 15 -19 46 -69
70 -111 23 -41 67 -103 97 -136 35 -40 54 -70 54 -86 0 -30 17 -35 78 -26 28
4 48 1 61 -8 28 -19 62 -117 63 -177 0 -48 -2 -53 -42 -86 -24 -19 -68 -60
-99 -90 -31 -30 -94 -83 -139 -118 -45 -35 -106 -92 -134 -128 -29 -35 -60
-64 -69 -64 -8 0 -26 -11 -39 -25 -13 -14 -29 -25 -36 -25 -36 0 -60 117 -84
409 -25 309 -43 389 -114 484 -23 32 -93 77 -120 77 -9 0 -35 -9 -57 -20 -46
-24 -46 -34 4 -115 98 -159 97 -158 97 -209 0 -87 -61 -146 -102 -98 -28 31
-59 102 -81 185 -19 73 -21 106 -20 297 0 118 5 238 9 265 l9 50 144 75 c79
41 163 91 185 111 23 19 64 43 91 53 122 45 310 154 591 342 254 169 310 203
351 209 26 4 190 4 365 0 l317 -8 25 29 24 29 189 -3 c206 -4 254 5 291 53 27
34 170 91 303 120 86 18 231 18 304 0z m-680 -3555 c357 -42 676 -120 975
-237 101 -39 284 -129 347 -170 l21 -14 -30 -49 c-37 -60 -33 -74 38 -139 31
-28 54 -58 54 -69 0 -11 16 -41 35 -67 20 -25 33 -50 30 -55 -11 -17 -34 -11
-46 13 -7 12 -19 27 -28 34 -15 12 -127 53 -143 53 -19 0 -5 -42 28 -81 50
-59 64 -91 64 -142 0 -48 17 -69 98 -120 48 -31 53 -50 17 -73 -17 -11 -25
-25 -25 -45 0 -31 10 -38 94 -75 75 -33 116 -69 116 -104 0 -26 -4 -30 -26
-30 -14 0 -34 5 -45 10 -17 9 -19 7 -19 -19 0 -38 24 -66 85 -99 70 -38 68
-71 -6 -86 -18 -4 -29 -14 -33 -31 -9 -36 8 -62 51 -76 63 -20 113 -49 113
-64 0 -8 11 -22 25 -31 30 -20 105 -11 105 12 0 35 -33 75 -82 100 -47 24 -49
27 -34 42 14 14 21 15 63 3 89 -26 119 -26 137 1 14 21 14 29 1 78 l-15 55 35
28 c29 24 39 44 61 115 43 148 59 173 117 187 26 7 27 5 27 -29 l0 -37 32 17
c18 9 91 35 163 56 71 22 150 51 174 66 24 15 53 33 65 40 15 10 51 12 133 8
132 -5 191 -26 223 -78 l20 -33 -118 -6 c-64 -4 -181 -10 -260 -14 l-144 -8
-38 -51 c-42 -56 -67 -109 -95 -201 -22 -71 -27 -267 -8 -300 6 -11 37 -33 69
-50 73 -38 107 -87 158 -225 21 -58 45 -114 52 -125 19 -27 18 -39 -10 -72
-13 -16 -26 -42 -28 -57 -2 -22 -11 -32 -41 -43 -66 -27 -71 -18 -64 106 7
123 -1 167 -41 206 -49 49 -95 54 -108 12 -5 -16 2 -28 31 -52 l37 -32 -3 -79
c-6 -189 -8 -179 36 -224 36 -37 43 -41 75 -35 40 8 165 60 197 84 29 21 53
71 53 109 0 16 -11 67 -25 113 -57 186 -75 255 -75 286 0 35 -29 63 -107 102
-23 11 -49 31 -57 43 -23 32 -20 96 7 143 17 30 130 186 162 223 2 2 20 -1 41
-7 22 -6 93 -15 159 -21 152 -13 242 -29 253 -44 5 -6 13 -38 16 -71 4 -33 27
-150 51 -260 56 -252 65 -310 65 -414 0 -153 -37 -256 -136 -376 -100 -122
-115 -150 -108 -211 6 -50 5 -53 -23 -67 -42 -22 -52 -38 -60 -93 -5 -42 -15
-58 -65 -112 -44 -47 -58 -70 -58 -92 l0 -30 -119 0 -119 0 -30 48 c-17 26
-38 64 -47 85 -8 20 -22 37 -30 37 -23 0 -33 31 -28 85 4 45 1 56 -33 110 -77
125 -85 142 -93 217 -5 40 -31 143 -59 228 -73 223 -95 337 -95 495 l-1 130
44 75 c32 55 45 89 48 127 5 64 -3 100 -26 112 -33 18 -45 -3 -47 -76 -1 -61
-5 -75 -44 -141 -24 -41 -54 -84 -66 -96 -32 -32 -49 -170 -42 -348 9 -238 39
-346 210 -743 71 -167 98 -219 132 -256 115 -124 157 -315 121 -558 -20 -131
-76 -312 -137 -438 -41 -83 -53 -98 -222 -263 -280 -272 -488 -518 -782 -920
-573 -785 -1218 -1289 -1963 -1536 -98 -32 -113 -40 -110 -57 2 -11 19 -29 38
-40 34 -19 50 -34 50 -49 0 -5 -34 -8 -75 -8 -100 0 -165 23 -345 120 -152 83
-229 115 -302 129 -28 5 -42 12 -40 21 2 7 -4 36 -13 63 -9 27 -14 52 -10 55
3 3 29 -2 59 -11 64 -21 77 -21 102 -3 18 14 18 15 -11 46 -44 46 -187 150
-283 206 -106 61 -141 101 -308 349 -73 110 -142 211 -153 225 -28 37 -330
502 -386 595 -134 222 -226 447 -272 663 -24 112 -27 150 -27 312 0 251 17
342 114 615 20 57 44 103 66 127 47 53 45 89 -11 208 -28 59 -45 109 -45 132
0 20 -19 90 -42 155 -116 332 -150 543 -116 744 l11 70 81 -7 c45 -3 186 -24
315 -45 128 -21 244 -39 256 -39 20 0 22 4 18 36 -9 81 -66 137 -176 173 -84
27 -105 31 -312 60 l-180 26 -3 125 c-6 225 26 500 83 714 33 123 80 258 105
298 11 18 20 40 20 50 0 36 191 169 365 253 239 116 529 205 985 305 80 17
153 34 163 36 13 4 17 -1 17 -23 0 -23 -34 -61 -210 -233 -115 -113 -210 -212
-210 -221 0 -21 25 -42 44 -37 9 2 111 98 228 214 182 180 221 213 268 232
131 52 274 72 507 72 153 0 162 1 168 20 12 37 35 52 74 46 20 -3 77 -11 126
-16z m1455 -496 c18 -33 65 -69 159 -124 137 -79 190 -147 191 -243 l0 -47
-42 26 c-24 14 -95 79 -158 143 -63 65 -143 138 -178 164 l-62 47 15 30 c20
39 56 40 75 4z m524 -500 c9 -8 16 -24 16 -35 0 -15 -7 -19 -35 -19 -33 0 -35
2 -35 35 0 28 4 35 19 35 11 0 27 -7 35 -16z m-1527 -5380 c4 -12 -41 -67
-232 -287 -66 -76 -156 -186 -200 -245 -90 -120 -113 -136 -302 -213 -183 -73
-252 -143 -269 -267 -6 -49 -9 -52 -43 -62 -45 -12 -164 -13 -176 -1 -6 5 -26
13 -45 18 -32 8 -36 13 -42 54 -12 78 -9 214 6 263 22 73 54 113 101 126 35
10 55 8 142 -15 56 -14 121 -25 145 -25 24 1 57 -2 74 -5 24 -5 33 -3 38 10 7
19 -9 55 -25 55 -5 0 -15 13 -20 29 -9 24 -23 34 -72 53 -67 26 -76 37 -50 63
15 15 29 17 100 11 81 -6 84 -5 106 20 30 36 79 65 162 98 52 20 81 39 110 72
34 38 56 51 150 86 101 38 154 68 260 149 38 29 75 35 82 13z m-3767 -606 c33
-15 76 -46 105 -77 60 -64 74 -72 139 -80 48 -6 52 -8 73 -52 27 -57 82 -104
139 -118 57 -15 182 -13 269 3 39 7 120 23 180 34 61 12 160 26 220 32 117 11
273 44 523 110 217 57 367 82 502 83 90 1 122 -3 146 -16 36 -19 51 -46 32
-59 -25 -15 -104 -36 -202 -53 -67 -12 -119 -28 -160 -49 -37 -20 -79 -33
-106 -35 -170 -9 -338 -67 -430 -149 -44 -40 -45 -41 -30 -69 13 -23 28 -31
84 -45 59 -14 109 -41 95 -51 -2 -1 -56 -20 -121 -41 -106 -36 -122 -38 -187
-32 -62 5 -71 4 -80 -13 -16 -28 7 -48 74 -66 69 -18 163 -19 237 -4 73 15
217 87 313 157 l80 58 6 82 c3 45 12 88 19 97 8 10 30 15 61 15 30 0 77 11
124 30 84 33 130 38 162 15 56 -39 32 -154 -42 -205 -24 -17 -50 -30 -59 -30
-8 0 -19 -6 -23 -13 -15 -26 -87 -66 -368 -204 -417 -206 -542 -241 -751 -210
-60 10 -137 17 -172 17 -59 0 -65 2 -117 45 -31 25 -68 48 -83 51 -41 11 -84
52 -260 249 -88 99 -194 211 -236 248 -42 38 -102 100 -132 138 -59 73 -140
124 -186 117 -35 -5 -37 -53 -4 -87 14 -15 28 -41 32 -58 5 -27 3 -33 -22 -46
-89 -44 -377 -57 -524 -23 -106 24 -109 27 -86 71 14 25 36 44 79 65 33 17 65
30 72 30 26 0 141 43 160 60 11 10 43 29 70 43 28 14 59 35 70 47 19 21 26 22
140 18 102 -4 128 -8 175 -30z"/>
<path d="M7894 11986 c-56 -25 -58 -54 -13 -218 22 -78 54 -216 71 -305 l31
-162 28 20 c62 44 107 202 94 329 -15 145 -59 261 -120 323 -31 30 -46 32 -91
13z"/>
<path d="M9011 11968 c-109 -53 -218 -193 -284 -363 -38 -99 -117 -339 -117
-356 0 -24 -64 -109 -82 -109 -15 0 -18 8 -18 49 0 155 -47 449 -90 563 -23
62 -33 65 -71 21 -50 -56 -53 -76 -59 -333 -6 -244 -6 -245 -34 -299 -19 -37
-27 -64 -24 -87 2 -21 -1 -35 -9 -38 -19 -8 -53 -81 -53 -115 0 -34 22 -61 50
-61 26 0 67 57 79 110 13 59 48 130 64 130 34 -1 36 -14 20 -106 -14 -78 -14
-94 -2 -120 19 -39 62 -44 96 -12 101 95 202 313 298 649 23 79 30 90 180 274
69 83 100 139 111 193 8 37 4 38 -55 10z"/>
<path d="M6986 11823 l-49 -53 24 -53 c72 -156 217 -323 528 -606 74 -67 143
-135 153 -151 18 -31 33 -36 57 -21 12 8 12 21 3 74 -13 82 -33 125 -87 185
-23 26 -68 90 -100 142 -104 171 -282 377 -430 496 l-50 40 -49 -53z"/>
<path d="M6433 11738 c-41 -144 -48 -185 -48 -288 0 -90 3 -112 23 -152 13
-26 38 -56 55 -67 30 -19 33 -19 39 -3 4 9 7 89 7 178 1 177 8 213 54 262 17
17 26 32 19 32 -6 0 -23 22 -36 49 -25 48 -41 61 -75 61 -14 0 -23 -18 -38
-72z"/>
<path d="M10151 11458 c-34 -5 -108 -35 -206 -84 -94 -47 -175 -80 -212 -87
-55 -10 -61 -14 -73 -45 -8 -23 -34 -50 -86 -88 -87 -64 -105 -88 -112 -149
-4 -41 -3 -45 17 -45 35 0 101 38 183 106 100 84 193 126 212 95 9 -14 -65
-121 -146 -211 -191 -215 -229 -279 -236 -402 l-4 -77 55 0 c44 0 69 -7 123
-35 37 -20 74 -36 83 -36 10 0 32 29 55 73 85 157 195 300 387 504 57 60 128
135 158 167 29 32 69 64 88 72 41 18 53 42 29 60 -20 14 -50 7 -95 -24 -14
-10 -48 -26 -74 -36 -26 -10 -78 -43 -115 -73 -65 -53 -130 -93 -152 -93 -21
0 39 97 92 146 29 28 81 64 115 79 46 21 61 33 61 49 -1 12 5 36 13 53 12 29
11 35 -2 48 -27 27 -99 42 -158 33z"/>
<path d="M10870 11313 c-86 -16 -240 -113 -331 -209 -30 -33 -106 -106 -168
-163 -113 -104 -236 -241 -326 -361 -26 -36 -62 -80 -79 -98 -25 -26 -28 -36
-20 -50 27 -42 49 -27 145 99 117 153 253 305 350 388 41 36 84 74 97 85 20
17 43 21 200 27 99 4 209 15 249 24 88 20 169 68 197 117 l20 36 -39 36 c-71
64 -182 90 -295 69z"/>
<path d="M7014 11055 c-20 -48 -18 -87 8 -141 26 -56 68 -84 126 -84 l42 0 0
88 0 88 -73 42 c-40 23 -76 42 -81 42 -4 0 -14 -16 -22 -35z"/>
<path d="M6731 11003 c-12 -27 -32 -84 -45 -128 l-23 -80 35 -27 c38 -31 53
-34 85 -17 69 38 110 176 72 248 -13 26 -58 51 -90 51 -6 0 -22 -21 -34 -47z"/>
<path d="M8733 11015 c-83 -42 -133 -123 -133 -215 0 -41 3 -50 18 -50 31 0
119 58 161 107 43 51 107 161 97 170 -3 3 -24 7 -48 10 -33 3 -55 -2 -95 -22z"/>
<path d="M7262 10918 c3 -29 7 -33 36 -36 31 -3 32 -2 32 32 0 35 -1 36 -36
36 -34 0 -35 -1 -32 -32z"/>
<path d="M8031 10920 l-22 -30 28 -25 c15 -13 30 -24 33 -25 3 0 15 14 27 31
l21 32 -28 23 c-15 13 -30 24 -32 24 -2 0 -14 -14 -27 -30z"/>
<path d="M9203 10895 c-16 -19 -47 -67 -69 -105 l-39 -70 -65 0 c-36 1 -82 7
-103 14 -32 12 -40 12 -52 -1 -17 -16 -18 -23 -7 -38 20 -27 49 -39 115 -46
40 -4 107 -20 150 -34 91 -32 93 -31 133 54 37 76 47 204 18 227 -46 36 -51
36 -81 -1z"/>
<path d="M10840 10891 c-42 -13 -104 -48 -124 -70 -10 -11 -62 -44 -114 -73
-53 -29 -124 -79 -158 -110 -48 -45 -69 -58 -93 -58 -17 0 -31 -5 -31 -12 0
-37 -45 -98 -110 -147 -114 -87 -158 -150 -133 -190 25 -41 74 -61 147 -61 72
0 97 7 366 105 41 15 105 30 141 32 70 6 143 -11 136 -30 -6 -20 -90 -72 -163
-102 -113 -46 -247 -112 -271 -133 -38 -33 -63 -85 -63 -129 l0 -43 50 0 c27
0 163 14 302 30 330 40 517 52 638 40 127 -12 180 -21 180 -30 0 -9 -96 -36
-160 -45 -166 -25 -233 -47 -282 -93 -38 -35 -35 -49 15 -63 62 -17 173 -5
330 35 104 27 160 36 221 36 89 0 190 -24 183 -43 -5 -17 -234 -92 -353 -116
-209 -43 -426 -53 -521 -25 -79 23 -174 16 -208 -16 -14 -13 -25 -29 -25 -36
0 -21 53 -43 121 -50 93 -9 447 13 582 36 172 29 381 92 452 136 11 7 49 20
85 30 36 9 79 24 95 32 34 16 75 51 75 64 0 4 -38 26 -85 49 -47 22 -90 49
-96 61 -6 11 -11 45 -10 74 0 30 -3 54 -7 54 -4 0 -47 7 -97 14 -267 43 -641
46 -805 7 -106 -26 -192 -27 -231 -4 -16 10 -29 20 -29 24 0 9 144 79 240 117
108 43 229 78 380 112 73 16 134 30 136 32 2 3 -4 29 -12 60 -39 136 -154 198
-367 198 -105 0 -203 -14 -475 -64 -208 -39 -252 -43 -252 -24 0 7 26 37 58
68 65 61 210 143 312 176 36 11 79 28 96 37 33 17 104 83 104 97 0 19 -118 26
-170 11z"/>
<path d="M11705 9546 c-9 -13 -19 -40 -22 -60 -11 -72 79 -123 257 -146 47 -6
118 -15 159 -20 41 -6 76 -9 78 -7 2 3 6 27 10 54 15 135 -104 202 -359 203
-102 0 -108 -1 -123 -24z"/>
<path d="M10380 9405 c-20 -24 24 -79 140 -181 103 -90 132 -104 138 -70 3 13
-34 55 -124 142 -70 68 -131 124 -135 124 -3 0 -12 -7 -19 -15z"/>
<path d="M10188 9188 c9 -39 32 -66 64 -77 42 -15 48 -14 42 7 -14 41 -30 65
-56 78 -40 21 -57 18 -50 -8z"/>
<path d="M10513 8963 c-20 -7 -15 -51 7 -73 22 -22 51 -26 81 -10 28 15 23 31
-18 63 -36 27 -47 30 -70 20z"/>
<path d="M10316 8574 c-3 -9 -6 -26 -6 -39 0 -44 10 -55 50 -55 42 0 57 19 40
50 -6 10 -10 28 -10 39 0 17 -6 21 -34 21 -22 0 -36 -6 -40 -16z"/>
<path d="M7239 8805 c-15 -8 -75 -35 -133 -60 -189 -81 -336 -181 -516 -352
-65 -63 -122 -123 -125 -134 -8 -23 10 -49 34 -49 9 0 67 50 128 110 62 60
146 134 186 165 165 124 345 213 446 221 59 4 91 21 125 68 18 23 19 28 6 36
-23 15 -122 11 -151 -5z"/>
<path d="M7160 8566 c-256 -90 -488 -277 -721 -582 -71 -93 -79 -113 -55 -134
22 -17 38 -4 100 79 144 193 305 352 451 447 103 66 140 85 250 123 96 34 109
45 94 73 -12 23 -39 22 -119 -6z"/>
<path d="M7214 8311 c-127 -64 -261 -138 -298 -164 -115 -83 -192 -201 -203
-312 l-6 -55 99 46 c259 120 374 184 441 247 31 29 40 31 215 53 233 30 282
30 310 4 12 -11 32 -20 44 -20 18 0 24 -7 29 -34 15 -75 82 -139 124 -116 11
5 29 10 40 10 17 0 21 6 21 29 0 45 -14 74 -64 130 -56 63 -76 100 -76 143 0
30 -7 38 -55 71 -70 47 -101 47 -166 2 -30 -21 -63 -35 -81 -35 -25 0 -32 6
-49 45 -24 55 -44 75 -72 74 -12 -1 -126 -53 -253 -118z"/>
<path d="M6352 8108 c-5 -7 -17 -28 -26 -46 -21 -41 -7 -69 25 -51 25 13 54
72 46 93 -8 19 -31 21 -45 4z"/>
<path d="M10769 7553 c-23 -69 -15 -177 24 -338 61 -254 68 -353 29 -430 -23
-48 -96 -144 -108 -145 -24 0 -95 -86 -114 -137 -26 -71 -26 -171 1 -258 l20
-66 32 7 c85 18 97 45 108 243 7 118 14 162 27 182 65 104 100 148 117 151 13
2 29 22 44 53 60 124 24 466 -69 659 -28 60 -72 116 -90 116 -4 0 -14 -17 -21
-37z"/>
<path d="M7263 7185 c-93 -25 -154 -64 -244 -154 -70 -70 -95 -104 -135 -183
-40 -79 -47 -101 -38 -115 14 -23 41 -28 60 -12 8 6 33 48 57 93 75 145 122
182 308 240 110 34 208 85 217 113 9 31 -135 42 -225 18z"/>
<path d="M8296 7104 c-60 -19 -121 -57 -137 -85 -19 -36 9 -53 87 -51 53 0 79
7 130 32 72 35 128 95 103 111 -22 13 -128 9 -183 -7z"/>
<path d="M7487 6953 c-9 -11 -35 -25 -56 -32 -53 -15 -138 -82 -241 -186 -91
-93 -115 -109 -199 -135 -57 -16 -85 -43 -96 -92 -5 -21 -3 -27 14 -33 30 -9
74 2 100 26 12 11 36 25 54 31 53 18 114 65 214 165 127 126 155 143 247 153
81 10 109 22 125 56 8 19 6 25 -17 40 -15 10 -50 20 -77 22 -40 3 -53 0 -68
-15z"/>
<path d="M6552 6858 c-68 -43 -95 -146 -68 -261 45 -190 177 -319 272 -264 21
12 21 13 -33 137 -69 161 -109 274 -118 336 -11 72 -15 76 -53 52z"/>
<path d="M5883 6693 c-19 -7 -16 -65 7 -119 18 -40 19 -50 7 -61 -15 -15 -31
-13 -166 27 -93 28 -156 23 -186 -12 -13 -15 -37 -27 -59 -31 -71 -11 -135
-80 -154 -164 -7 -31 -6 -47 3 -59 18 -26 42 -10 50 33 9 48 38 96 72 118 22
15 43 17 147 12 172 -7 265 -44 320 -127 23 -34 45 -101 46 -137 0 -16 -12
-19 -183 -47 -107 -18 -167 -34 -214 -55 -36 -17 -73 -31 -82 -31 -47 0 -87
-59 -97 -142 l-6 -54 38 -17 c55 -24 170 -10 218 27 27 20 47 26 99 28 39 2
71 -2 77 -8 16 -16 -12 -129 -54 -213 -49 -97 -76 -182 -76 -241 0 -28 11
-107 25 -176 31 -153 34 -277 7 -296 -9 -7 -32 -32 -50 -55 -18 -23 -42 -45
-52 -48 -15 -5 -20 -16 -20 -43 -1 -51 -21 -102 -62 -159 -20 -26 -41 -65 -47
-86 -12 -34 -10 -41 13 -82 15 -24 48 -71 74 -104 77 -95 268 -291 284 -291 9
0 21 7 28 15 10 12 9 20 -4 40 -9 13 -16 34 -16 45 0 38 -28 90 -78 143 -27
28 -57 66 -66 84 -15 30 -15 32 12 60 27 28 28 28 117 22 50 -3 121 -4 158 -1
60 4 70 8 84 31 9 14 46 71 82 126 87 133 114 201 115 288 1 64 2 68 26 74 14
3 50 19 81 35 38 20 67 28 90 26 33 -3 34 -4 31 -42 -2 -21 -14 -58 -27 -82
-14 -26 -21 -52 -18 -65 6 -21 10 -21 122 -16 100 4 133 11 244 47 71 23 163
48 205 56 l75 14 191 194 191 193 200 7 c199 7 232 4 292 -27 38 -20 53 -8 53
45 0 27 -11 55 -35 93 -40 64 -45 65 -185 40 -47 -8 -106 -15 -133 -15 -45 0
-48 2 -84 51 -49 68 -70 75 -130 43 -63 -34 -104 -28 -196 27 -150 89 -189
101 -247 77 l-34 -14 41 -45 c23 -25 74 -63 114 -84 85 -47 157 -108 165 -140
8 -32 -26 -103 -67 -142 -71 -66 -160 -97 -389 -133 -74 -12 -177 -33 -228
-47 -51 -14 -95 -24 -97 -22 -2 2 0 24 5 49 11 61 42 85 137 105 177 38 207
51 288 122 41 37 75 71 75 78 0 15 -66 171 -92 217 -12 21 -32 45 -45 53 -21
14 -24 13 -39 -10 -19 -29 -14 -70 16 -140 26 -61 35 -136 20 -164 -6 -13 -27
-29 -45 -37 -29 -12 -37 -11 -65 3 -49 24 -199 13 -320 -24 l-95 -28 -3 -37
c-2 -27 4 -48 24 -77 14 -22 24 -47 21 -55 -3 -7 -31 -26 -63 -42 -50 -25 -66
-27 -143 -25 -47 1 -87 4 -89 6 -3 2 -4 17 -4 32 0 15 -5 34 -10 41 -16 19
-49 14 -55 -8 -5 -18 -14 -20 -74 -20 l-69 0 -21 43 c-35 66 -49 135 -49 233
0 117 23 207 117 459 102 272 125 363 126 495 0 88 -4 117 -25 178 -31 86 -53
122 -74 122 -9 0 -29 11 -46 25 -29 25 -41 28 -65 18z m-263 -745 c0 -31 -11
-45 -43 -57 -42 -16 -47 -14 -47 18 0 50 9 61 51 61 34 0 39 -3 39 -22z m483
-1005 c-11 -73 -45 -144 -110 -231 -36 -48 -72 -101 -80 -118 -13 -26 -24 -33
-57 -39 -51 -8 -76 -8 -85 0 -12 13 -13 315 -1 315 6 0 43 19 81 41 90 54 132
68 201 69 l57 0 -6 -37z"/>
<path d="M8173 6680 c-32 -13 -29 -26 15 -55 70 -46 233 -76 320 -59 30 6 72
37 72 53 0 11 -91 47 -150 61 -56 12 -227 12 -257 0z"/>
<path d="M7602 6604 c-50 -53 -116 -86 -233 -114 -92 -23 -126 -48 -109 -80 6
-10 18 -21 28 -24 25 -8 196 39 268 74 79 39 157 119 152 158 -2 22 -9 27 -33
30 -24 2 -38 -6 -73 -44z"/>
<path d="M8100 5637 c0 -32 7 -41 74 -97 61 -49 81 -73 108 -128 l33 -67 1
-190 c2 -178 12 -266 33 -280 14 -8 72 64 102 130 128 274 -33 630 -299 662
l-52 6 0 -36z"/>
<path d="M7605 5188 c-151 -130 -303 -208 -698 -357 -370 -140 -492 -199 -643
-307 -165 -118 -249 -199 -258 -248 -8 -41 2 -106 16 -106 41 0 109 69 129
131 15 43 56 87 139 148 146 108 276 170 635 306 359 136 454 180 605 281 124
83 192 147 188 177 -6 41 -47 32 -113 -25z"/>
<path d="M9530 4906 c0 -13 -11 -43 -24 -67 -18 -33 -24 -59 -24 -104 1 -40
-8 -87 -26 -140 -73 -216 -246 -391 -541 -547 -76 -40 -101 -59 -103 -75 -2
-16 4 -26 22 -34 22 -10 38 -4 143 51 147 77 226 133 327 229 133 129 206 248
246 405 11 44 29 89 39 100 25 27 41 88 41 154 l0 52 -50 0 c-46 0 -50 -2 -50
-24z"/>
<path d="M6126 3921 c-3 -4 -13 -51 -22 -102 -21 -123 -15 -311 15 -424 45
-170 110 -261 264 -368 108 -75 168 -107 263 -139 60 -20 88 -23 214 -23 137
1 150 2 240 33 243 84 428 218 763 553 189 189 218 222 215 245 -2 18 -11 30
-27 36 -23 8 -38 -5 -180 -153 -279 -290 -482 -453 -684 -549 -126 -60 -215
-83 -332 -83 -107 0 -190 20 -292 70 -188 94 -245 202 -308 583 -39 239 -52
284 -85 309 -33 24 -37 25 -44 12z"/>
<path d="M2750 6460 c-367 -121 -521 -196 -683 -335 -66 -56 -78 -71 -75 -93
5 -45 32 -37 111 35 138 126 319 216 651 325 l189 62 28 -32 c26 -29 29 -39
29 -104 0 -53 -6 -82 -22 -116 -33 -66 -106 -141 -179 -185 -70 -41 -214 -91
-296 -102 -61 -8 -74 -27 -43 -65 41 -51 44 -66 25 -115 -24 -63 -75 -136
-175 -250 -110 -126 -144 -177 -126 -187 8 -5 17 -23 21 -41 4 -17 13 -41 20
-53 7 -11 19 -74 25 -140 14 -146 42 -314 76 -459 15 -60 28 -111 29 -113 2
-2 20 4 41 13 84 35 125 100 175 272 17 59 37 118 45 130 7 12 28 66 45 120
46 143 51 151 104 159 26 3 132 1 238 -5 189 -11 338 -34 427 -66 61 -21 405
-253 487 -327 63 -58 158 -113 175 -102 15 9 8 64 -12 103 -23 46 -80 97 -152
136 -29 16 -106 73 -171 127 -187 156 -256 204 -317 221 -71 20 -195 37 -273
37 -40 0 -78 7 -107 21 -39 17 -61 19 -189 17 l-144 -3 -43 -45 c-36 -39 -49
-65 -90 -188 -47 -141 -48 -142 -83 -153 -44 -13 -83 0 -105 33 -8 13 -29 62
-46 110 -18 49 -36 91 -41 94 -5 3 -9 23 -9 44 0 34 7 45 67 102 36 35 123
140 193 233 156 209 238 289 355 345 47 22 85 47 85 55 0 7 18 48 41 89 37 70
40 81 35 129 -3 28 -10 88 -14 132 -5 44 -13 90 -20 102 -17 30 -93 93 -111
92 -9 0 -95 -27 -191 -59z"/>
<path d="M1163 6504 c-7 -3 -13 -15 -13 -26 0 -12 -20 -42 -44 -68 -25 -26
-58 -74 -74 -106 -17 -33 -56 -85 -87 -117 -92 -94 -146 -243 -106 -291 9 -11
10 -20 1 -35 -12 -23 -30 -27 -47 -10 -8 8 -13 -6 -17 -52 -41 -447 -46 -664
-20 -820 16 -90 53 -209 74 -235 6 -6 28 -54 50 -105 40 -94 50 -155 28 -177
-22 -22 -65 -14 -91 18 -14 16 -41 37 -59 46 -30 14 -37 25 -60 97 -14 45 -39
120 -56 167 -17 47 -35 104 -42 128 -6 23 -36 79 -66 123 -46 68 -56 90 -64
147 -12 84 -26 126 -81 232 -24 47 -56 111 -70 144 -24 53 -30 60 -75 76 -27
10 -69 25 -92 34 -27 10 -57 14 -76 11 -28 -6 -33 -12 -44 -57 -7 -31 -8 -55
-3 -62 6 -7 4 -36 -5 -76 -21 -99 -28 -281 -15 -398 35 -318 134 -591 388
-1067 26 -49 56 -114 66 -142 20 -58 48 -91 87 -100 14 -3 33 -13 44 -22 31
-26 193 -244 201 -271 4 -13 49 -67 99 -120 l91 -95 72 -245 c122 -414 135
-475 138 -630 2 -150 13 -202 90 -430 118 -349 118 -452 2 -518 -137 -78 -254
-193 -375 -367 -34 -49 -84 -112 -112 -140 -59 -57 -100 -135 -108 -202 l-5
-46 29 7 c60 15 109 69 185 203 55 97 169 244 254 328 94 93 192 159 215 145
25 -15 -11 -69 -120 -185 -146 -153 -209 -231 -236 -290 -49 -105 -14 -142 61
-65 32 33 46 40 70 38 l30 -3 -3 -152 c-3 -129 -1 -157 14 -181 22 -38 53 -57
67 -43 6 6 21 11 34 11 46 0 56 45 64 270 8 262 16 287 154 525 52 89 58 105
56 150 -3 71 -33 210 -77 350 -83 268 -105 352 -120 454 -35 239 -47 306 -99
516 -81 331 -137 479 -231 611 -46 65 -130 146 -176 170 -15 8 -68 68 -118
134 -50 66 -99 124 -110 130 -12 6 -20 16 -19 23 5 45 -5 65 -59 117 -108 103
-295 471 -390 770 -65 203 -77 285 -77 510 0 135 5 219 13 248 12 40 15 42 51
42 32 0 43 -6 65 -35 40 -52 70 -126 101 -250 39 -154 64 -233 90 -286 25 -48
91 -114 129 -129 17 -6 33 -36 69 -134 26 -69 47 -137 47 -151 0 -27 -27 -45
-98 -64 -48 -13 -63 -35 -40 -58 14 -13 23 -12 84 9 l69 24 51 -23 c35 -16 78
-51 138 -113 88 -91 119 -142 129 -212 6 -36 4 -39 -53 -83 -73 -56 -110 -100
-110 -131 0 -35 42 -33 61 2 7 15 39 46 69 69 30 24 66 52 79 64 38 33 89 42
300 51 190 9 235 15 280 39 30 17 26 30 -16 48 -28 12 -82 18 -198 22 l-160 6
-75 150 c-58 118 -85 161 -127 202 -38 37 -64 77 -97 147 -40 87 -46 108 -55
209 -6 62 -11 283 -11 492 0 434 -8 389 99 565 22 36 49 100 61 145 25 94 77
206 119 255 27 33 33 35 82 33 69 -2 125 -25 132 -56 19 -72 18 -141 -2 -282
-31 -212 -28 -203 -99 -253 -64 -45 -76 -62 -44 -62 33 0 52 -33 52 -87 0 -35
6 -58 20 -76 19 -23 20 -40 20 -257 0 -218 -1 -234 -21 -261 -16 -23 -28 -29
-55 -29 -37 0 -74 -15 -74 -30 0 -5 25 -6 55 -3 53 6 57 4 109 -37 87 -66 159
-171 275 -398 l106 -207 155 0 c171 0 191 -5 312 -67 82 -42 102 -58 161 -131
53 -65 79 -81 121 -73 89 17 34 118 -100 184 -34 17 -85 45 -114 62 -76 45
-165 79 -240 91 -36 6 -75 13 -88 15 -29 6 -107 77 -139 128 -36 56 -69 149
-87 246 -24 130 -58 487 -53 556 8 104 85 250 213 406 64 78 76 106 50 127
-22 18 -40 5 -113 -87 -162 -202 -216 -317 -233 -493 -11 -121 -36 -258 -51
-275 -16 -20 -48 -17 -86 6 l-33 20 4 287 c3 159 10 315 15 348 6 33 9 83 5
110 -3 30 2 99 14 175 31 196 34 232 21 306 -7 38 -11 83 -11 101 2 40 -30 68
-102 88 -60 16 -146 26 -163 19z"/>
<path d="M2930 4824 c0 -37 -2 -35 107 -132 26 -23 32 -39 38 -87 10 -80 -2
-99 -100 -149 -43 -23 -80 -46 -82 -51 -2 -6 13 -19 32 -29 83 -45 134 -157
185 -406 26 -127 55 -224 78 -267 38 -69 123 -121 438 -269 93 -44 136 -79
154 -125 74 -187 135 -322 176 -391 81 -135 203 -252 225 -217 20 32 1 172
-36 259 -13 31 -51 106 -85 166 -85 153 -89 170 -58 241 14 32 31 76 38 98 7
22 21 61 32 87 l20 46 43 -15 c24 -8 51 -25 60 -39 17 -26 49 -31 89 -12 26
11 42 40 31 58 -11 18 -81 31 -110 20 -18 -7 -39 -7 -65 0 -31 8 -45 21 -73
66 -65 103 -105 325 -92 509 6 91 28 245 41 287 4 13 -9 19 -70 33 -64 14 -79
15 -102 3 l-28 -13 2 -185 c4 -337 16 -449 63 -598 16 -51 29 -111 29 -135 -1
-55 -29 -116 -70 -150 l-32 -28 -33 26 c-39 29 -131 76 -265 135 -52 23 -125
62 -161 86 l-66 44 5 69 c7 99 -12 209 -69 400 -27 91 -52 196 -55 232 -8 80
12 157 57 218 l31 43 81 -4 c94 -4 149 -26 220 -88 52 -47 77 -51 77 -15 0 18
-14 36 -52 65 -96 77 -181 106 -283 98 l-64 -6 -85 63 c-79 59 -155 95 -198
95 -14 0 -18 -8 -18 -36z"/>
<path d="M4135 4625 c-27 -26 -33 -76 -12 -93 8 -7 27 -6 60 1 44 11 47 13 47
44 0 35 -29 73 -55 73 -9 0 -27 -11 -40 -25z"/>
<path d="M10475 3990 c-72 -13 -169 -47 -255 -90 -41 -21 -141 -66 -223 -100
-169 -71 -193 -86 -183 -118 4 -13 16 -22 27 -22 11 0 94 32 186 70 130 56
175 70 206 68 22 -2 42 -8 44 -15 3 -7 -31 -30 -79 -54 -389 -195 -855 -509
-1238 -832 -217 -184 -356 -312 -608 -561 -205 -203 -229 -236 -176 -244 15
-2 73 48 225 196 480 467 824 754 1239 1032 274 184 693 411 884 477 55 19
116 43 136 53 48 24 103 77 95 90 -27 43 -172 69 -280 50z"/>
<path d="M12040 3811 c-14 -35 -73 -92 -121 -116 -17 -9 -104 -41 -192 -71
-180 -61 -240 -91 -288 -140 l-32 -33 26 -39 c15 -24 44 -48 74 -63 47 -24 53
-24 277 -21 l229 2 51 -55 c42 -44 58 -55 83 -55 27 0 33 5 43 35 21 62 13
162 -25 309 -20 79 -35 164 -35 197 0 52 -2 57 -24 63 -13 3 -31 8 -39 11 -9
4 -18 -4 -27 -24z"/>
<path d="M1328 3789 c-28 -16 -22 -31 33 -84 73 -73 151 -177 206 -280 l48
-90 65 -5 c57 -4 77 -12 160 -61 52 -31 105 -60 117 -64 13 -3 36 -26 52 -49
17 -24 80 -96 141 -161 85 -91 127 -145 182 -238 38 -65 86 -137 106 -159 36
-40 89 -74 100 -64 3 4 0 40 -6 82 -23 147 -99 283 -231 414 -95 94 -267 225
-307 234 -16 4 -74 33 -128 66 -54 32 -101 60 -105 62 -3 2 -22 33 -41 71 -67
132 -156 219 -312 305 -32 18 -59 32 -60 32 -2 0 -11 -5 -20 -11z"/>
<path d="M2465 3715 c-5 -2 -22 -6 -37 -9 -14 -3 -40 -18 -57 -32 -21 -18 -51
-28 -98 -36 -88 -13 -125 -32 -121 -61 4 -26 24 -27 138 -3 41 8 126 15 188
15 l112 1 0 33 c0 42 -22 73 -57 81 -16 4 -35 9 -43 11 -8 2 -19 2 -25 0z"/>
<path d="M9020 3243 c0 -10 5 -25 10 -33 8 -13 11 -13 26 2 14 14 15 20 4 32
-17 21 -40 20 -40 -1z"/>
<path d="M9870 3051 c-190 -67 -286 -108 -515 -222 -321 -160 -358 -185 -325
-224 20 -24 41 -18 151 41 290 156 499 251 712 325 76 26 145 53 153 60 20 16
17 46 -5 59 -26 13 -18 15 -171 -39z"/>
<path d="M2985 2284 c28 -127 65 -211 121 -281 30 -36 34 -49 34 -97 l0 -56
34 0 c19 0 38 -4 41 -10 11 -18 23 -11 34 21 18 51 13 88 -13 114 -15 15 -35
59 -50 108 -39 128 -100 203 -179 223 -27 6 -28 5 -22 -22z"/>
<path d="M2898 1008 c-28 -28 -358 -161 -564 -228 -191 -61 -351 -102 -509
-130 -141 -24 -165 -33 -165 -59 0 -36 26 -39 159 -16 304 53 672 168 1019
319 126 54 132 40 33 -77 -153 -183 -252 -349 -290 -487 -16 -58 -18 -76 -8
-82 26 -18 113 -1 202 39 l89 40 32 99 c46 146 78 223 154 382 38 78 63 142
57 142 -7 0 -39 18 -72 40 -68 45 -105 50 -137 18z"/>
<path d="M563 563 c-22 -104 4 -332 56 -498 l19 -60 61 -3 c59 -3 61 -2 81 30
22 37 26 105 10 223 -10 82 0 143 29 166 20 16 20 17 -11 23 -21 4 -53 28 -95
72 -92 94 -137 108 -150 47z"/>
</g>
</svg>
